<svg width="20" height="10" viewBox="0 0 20 10" fill="none" xmlns="http://www.w3.org/2000/svg">
<path d="M19.5598 0.3824C19.2778 0.137549 18.8954 0 18.4967 0C18.098 0 17.7157 0.137549 17.4337 0.3824L9.99092 6.84743L2.54815 0.3824C2.26457 0.144488 1.88476 0.0128441 1.49052 0.0158205C1.09629 0.018796 0.719168 0.156154 0.44039 0.398309C0.161613 0.640465 0.00348282 0.968042 5.72205e-05 1.31049C-0.00336838 1.65294 0.148186 1.98285 0.422075 2.22918L8.92789 9.6176C9.20985 9.86245 9.59222 10 9.99092 10C10.3896 10 10.772 9.86245 11.054 9.6176L19.5598 2.22918C19.8416 1.98425 20 1.65211 20 1.30579C20 0.959466 19.8416 0.627323 19.5598 0.3824Z" fill="#FFA101"/>
</svg>
