<svg width="20" height="10" viewBox="0 0 20 10" fill="none" xmlns="http://www.w3.org/2000/svg">
<path d="M0.440231 9.6176C0.722196 9.86245 1.10457 10 1.50327 10C1.90197 10 2.28434 9.86245 2.56631 9.6176L10.0091 3.15257L17.4518 9.6176C17.7354 9.85551 18.1152 9.98716 18.5095 9.98418C18.9037 9.9812 19.2808 9.84385 19.5596 9.60169C19.8384 9.35954 19.9965 9.03196 19.9999 8.68951C20.0034 8.34706 19.8518 8.01715 19.5779 7.77082L11.0721 0.382399C10.7902 0.137549 10.4078 0 10.0091 0C9.61038 0 9.22801 0.137549 8.94604 0.382399L0.440231 7.77082C0.158351 8.01575 0 8.34789 0 8.69421C0 9.04053 0.158351 9.37268 0.440231 9.6176Z" fill="#FFA101"/>
</svg>
