<svg width="20" height="20" viewBox="0 0 20 20" fill="none" xmlns="http://www.w3.org/2000/svg">
<path d="M10 0C8.02219 0 6.08879 0.58649 4.4443 1.6853C2.79981 2.78412 1.51809 4.3459 0.761209 6.17316C0.00433281 8.00043 -0.1937 10.0111 0.192152 11.9509C0.578004 13.8907 1.53041 15.6725 2.92894 17.0711C4.32746 18.4696 6.10929 19.422 8.0491 19.8078C9.98891 20.1937 11.9996 19.9957 13.8268 19.2388C15.6541 18.4819 17.2159 17.2002 18.3147 15.5557C19.4135 13.9112 20 11.9778 20 10C19.9971 7.34874 18.9425 4.80691 17.0678 2.93218C15.1931 1.05745 12.6513 0.00294095 10 0ZM10 17.3148C9.18129 16.3566 8.54177 15.2589 8.11204 14.0741H11.8917C11.6471 14.7441 11.337 15.3882 10.9657 15.9972C10.6801 16.4619 10.3571 16.9025 10 17.3148ZM7.54723 11.8518C7.36389 10.6241 7.36389 9.37591 7.54723 8.14815H12.4546C12.638 9.37591 12.638 10.6241 12.4546 11.8518H7.54723ZM2.22223 10C2.2222 9.37589 2.29775 8.75408 2.44723 8.14815H5.30093C5.14661 9.37789 5.14661 10.6221 5.30093 11.8518H2.44723C2.29775 11.2459 2.2222 10.6241 2.22223 10ZM10 2.68518C10.8187 3.64337 11.4582 4.74113 11.888 5.92592H8.11019C8.35474 5.25595 8.66489 4.61177 9.03611 4.00278C9.32117 3.53818 9.64353 3.09753 10 2.68518ZM14.6972 8.14815H17.5509C17.8509 9.36449 17.8509 10.6355 17.5509 11.8518H14.6991C14.8534 10.6221 14.8534 9.37789 14.6991 8.14815H14.6972ZM16.6204 5.92592H14.2324C13.8988 4.80591 13.416 3.73583 12.7972 2.74444C14.3844 3.36058 15.7273 4.47755 16.6222 5.92592H16.6204ZM7.20278 2.74444C6.58397 3.73583 6.10125 4.80591 5.7676 5.92592H3.37778C4.27272 4.47755 5.61562 3.36058 7.20278 2.74444ZM3.37778 14.0741H5.7676C6.10125 15.1941 6.58397 16.2642 7.20278 17.2556C5.61562 16.6394 4.27272 15.5224 3.37778 14.0741ZM12.7972 17.2556C13.416 16.2642 13.8988 15.1941 14.2324 14.0741H16.6222C15.7273 15.5224 14.3844 16.6394 12.7972 17.2556Z" fill="#FFA100"/>
</svg>
